# xmcd CD database file
#
# Track frame offsets:
#	150
#	37761
#	76757
#	100715
#	133776
#	164909
#
# Disc length: 2532 seconds
#
# Revision: 1
# Processed by: cddbd v1.5.1PL2 Copyright (c) Steve Scherf et al.
# Submitted via: CDex 1.51
#
DISCID=4109e206
DTITLE=Lou Donaldson - Good Gracious!
DYEAR=1963
DGENRE=Jazz
TTITLE0=Bad John
TTITLE1=The Holy Ghost
TTITLE2=Cherry
TTITLE3=Caracas
TTITLE4=Good Gracious
TTITLE5=Don't Worry 'Bout Me
EXTD=YEAR: 1963
EXTT0=
EXTT1=
EXTT2=
EXTT3=
EXTT4=
EXTT5=
PLAYORDER=
